<svg width="188" height="46" viewBox="0 0 188 46" fill="none" xmlns="http://www.w3.org/2000/svg">
<g clip-path="url(#clip0_101_100)">
<g clip-path="url(#clip1_101_100)">
<g clip-path="url(#clip2_101_100)">
<path d="M18.8982 10.6591C18.9555 10.9866 19.0047 11.2159 19.0292 11.3387C19.0627 11.5057 19.0764 11.6761 19.0702 11.8463C19.0749 12.4661 18.9317 13.078 18.6526 13.6314C18.4158 14.1414 18.0111 14.5547 17.5062 14.8023C17.1129 14.2782 16.634 13.8242 16.0897 13.4594C15.5142 13.0774 14.8958 12.7641 14.2474 12.526C13.5746 12.2854 12.8812 12.1072 12.1758 11.9937C11.4855 11.8808 10.7873 11.8233 10.0878 11.8218C9.45119 11.8167 8.81543 11.8688 8.18814 11.9774C7.65364 12.0694 7.1297 12.2148 6.62421 12.4113C6.22364 12.5615 5.85844 12.7929 5.55156 13.0909C5.42774 13.2129 5.32928 13.3582 5.26182 13.5184C5.19437 13.6786 5.15927 13.8506 5.15853 14.0244C5.27244 14.5356 5.56223 14.9906 5.97734 15.3099C6.50266 15.793 7.07609 16.2211 7.68866 16.5873C8.36009 17.0049 9.1134 17.4061 9.93221 17.8155C10.751 18.2249 11.5698 18.6343 12.3887 18.9782C13.3712 19.4449 14.2228 19.8707 14.9352 20.2719C15.5845 20.6183 16.1802 21.0568 16.7038 21.5739C17.1618 22.042 17.5186 22.5995 17.7519 23.2115C17.9654 23.9055 18.0541 24.6318 18.0139 25.3568C18.0209 26.3016 17.8543 27.2397 17.5226 28.1244C17.207 28.9641 16.7189 29.7284 16.0897 30.3679C15.4412 31.0176 14.6665 31.5275 13.8134 31.8663C12.8598 32.2313 11.8457 32.4119 10.8247 32.3986C9.65687 32.3804 8.49595 32.2154 7.36933 31.9073C6.14758 31.594 4.96612 31.1407 3.84843 30.5562C2.83831 30.0545 1.91723 29.3907 1.12178 28.5911C0.785417 28.2922 0.512729 27.9287 0.319994 27.5221C0.127258 27.1155 0.0184277 26.6743 0 26.2247C0.0277512 25.718 0.141266 25.2196 0.335714 24.7509C0.617471 24.0518 1.02549 23.4107 1.53937 22.8594C1.66452 23.614 1.98017 24.3242 2.45644 24.9228C3.15071 25.8249 4.02307 26.5747 5.01933 27.1254C6.04391 27.7239 7.14601 28.1785 8.29459 28.4765C9.33021 28.7426 10.3942 28.8828 11.4634 28.894C12.3628 28.9234 13.2597 28.7845 14.1082 28.4846C14.6953 28.2687 15.2348 27.9405 15.6967 27.5184C16.0507 27.2013 16.3303 26.8099 16.5155 26.3721C16.6479 26.0783 16.7362 25.7665 16.7775 25.4468C16.743 25.0205 16.5537 24.6215 16.2453 24.3251C15.8394 23.9173 15.3793 23.5674 14.8779 23.2852C14.3129 22.9495 13.6496 22.6056 12.8963 22.2535C12.143 21.9014 11.3569 21.5575 10.5463 21.2136C9.33448 20.6732 8.27821 20.1655 7.40208 19.6906C6.62884 19.2868 5.90135 18.8009 5.23222 18.2413C4.71046 17.816 4.28368 17.286 3.97944 16.6855C3.71141 16.1062 3.57976 15.4732 3.59459 14.835C3.60051 13.7351 3.94344 12.6635 4.57717 11.7645C5.28866 10.7548 6.29134 9.98641 7.45121 9.56185C8.08454 9.28522 8.75034 9.08988 9.43274 8.98049C10.1173 8.86506 10.8101 8.80482 11.5043 8.80035C12.7699 8.80166 14.0291 8.97801 15.2463 9.3244C16.493 9.68436 17.7132 10.1303 18.8982 10.6591Z" fill="#FED136"/>
<path d="M21.2236 19.0928C21.0824 18.8698 20.9928 18.618 20.9616 18.3559C20.8868 18.0363 20.8456 17.7097 20.8388 17.3815C21.3178 17.461 21.8025 17.5021 22.2881 17.5044H23.5654C23.8602 16.9312 24.1713 16.358 24.5071 15.793C24.8428 15.228 25.1785 14.7122 25.4978 14.2455C25.7747 13.8346 26.0726 13.4383 26.3903 13.0582C26.5809 12.8209 26.801 12.609 27.0454 12.4277C27.2938 12.4343 27.5408 12.4672 27.7823 12.526C28.0853 12.5997 28.3882 12.6815 28.6994 12.788C29.0105 12.8944 29.2889 13.0091 29.5182 13.1237C29.7116 13.2024 29.8871 13.3193 30.0341 13.4676C29.4527 14.2045 28.9614 14.876 28.5438 15.4983C28.1262 16.1206 27.6759 16.8411 27.1928 17.6435H28.3719C28.7745 17.6443 29.1767 17.6169 29.5755 17.5617C29.6759 17.6648 29.7539 17.7874 29.8048 17.9219C29.8629 18.0651 29.8934 18.2178 29.8949 18.3723C28.7865 18.7655 27.6152 18.9515 26.4395 18.9209C25.9564 19.8543 25.5306 20.7796 25.1539 21.6967C24.7773 22.6137 24.4579 23.5063 24.1959 24.3578C23.9479 25.148 23.7456 25.9517 23.59 26.7651C23.4517 27.4362 23.3777 28.1189 23.3689 28.804C23.3689 29.6556 23.6882 30.1305 24.3269 30.2287C24.8885 30.1516 25.4385 30.0059 25.9646 29.7947C26.4665 29.5922 26.9356 29.3162 27.3565 28.9759C27.4523 29.1079 27.5193 29.2586 27.5531 29.4181C27.3852 29.6437 27.1868 29.8449 26.9635 30.0158C26.6707 30.2592 26.3645 30.4861 26.0464 30.6954C25.7397 30.9043 25.4196 31.093 25.0884 31.2604C24.8706 31.3797 24.6359 31.4653 24.3924 31.5143C23.8957 31.5102 23.4041 31.413 22.9431 31.2277C22.475 31.0407 22.0322 30.7959 21.6248 30.4989C21.2495 30.2317 20.9227 29.9021 20.6586 29.5245C20.4234 29.2218 20.2914 28.8516 20.282 28.4683C20.2919 27.8797 20.3549 27.2932 20.4703 26.716C20.5931 26.0036 20.7733 25.2421 21.0025 24.407C21.2318 23.5718 21.5102 22.7038 21.8214 21.7949C22.1325 20.8861 22.4682 19.9854 22.8367 19.0928H21.2236Z" fill="#FED136"/>
<path d="M39.7125 18.4869C39.9422 18.4919 40.1704 18.5249 40.3921 18.5852C40.6373 18.6499 40.8758 18.7376 41.1045 18.8472C41.2938 18.9391 41.4723 19.0517 41.6367 19.1829C41.7841 19.2975 41.8578 19.404 41.8578 19.5022C41.473 20.3211 41.1127 21.1399 40.7852 21.9587C40.4576 22.7775 40.1792 23.5963 39.9663 24.3251C39.7506 25.019 39.5729 25.7243 39.4341 26.4376C39.3198 27.0012 39.2568 27.574 39.2458 28.1489C39.2338 28.6027 39.2918 29.0556 39.4177 29.4918C39.5051 29.8137 39.7133 30.0894 39.9991 30.2615C39.7216 30.4357 39.4173 30.5629 39.0984 30.6381C38.7786 30.7293 38.4483 30.7789 38.1158 30.7855C37.0677 30.7855 36.5519 30.0731 36.5519 28.6402C36.657 27.0776 37.0339 25.5453 37.6655 24.1122C37.2875 24.9656 36.8412 25.7871 36.3308 26.5686C35.8695 27.2915 35.3578 27.981 34.7996 28.632C34.324 29.2093 33.7795 29.7262 33.1784 30.1714C32.7423 30.4972 32.2431 30.7286 31.7127 30.851C31.3629 30.852 31.019 30.762 30.7146 30.5897C30.4102 30.4174 30.156 30.1688 29.9768 29.8684C29.5077 29.1373 29.2734 28.2801 29.3054 27.412C29.3228 26.2351 29.5588 25.0718 30.0014 23.9812C30.4564 22.7957 31.056 21.6709 31.7864 20.6322C32.4516 19.6718 33.2451 18.8067 34.1446 18.0611C34.8175 17.4393 35.6862 17.0716 36.601 17.0212C36.8366 17.1033 37.0576 17.2222 37.2561 17.3733C37.5054 17.5545 37.7382 17.7573 37.9521 17.9793C38.1619 18.1959 38.3511 18.4316 38.517 18.6834C38.6467 18.8704 38.7359 19.0823 38.7791 19.3057C37.9092 19.4436 37.0889 19.8016 36.3963 20.3456C35.5492 21.0064 34.797 21.7806 34.161 22.6465C33.4993 23.5338 32.9493 24.499 32.5233 25.5205C32.1239 26.4245 31.9069 27.3984 31.8846 28.3864C31.8653 28.5314 31.8952 28.6788 31.9694 28.805C32.0436 28.9311 32.1579 29.0288 32.2941 29.0824C33.0712 28.8083 33.7476 28.306 34.2346 27.6413C35.235 26.4214 36.1281 25.1174 36.904 23.7437L37.5508 22.5892C37.7965 22.1634 38.0421 21.713 38.296 21.2545L39.0329 19.8461C39.3031 19.3876 39.4996 18.9291 39.7125 18.4869Z" fill="#FED136"/>
<path d="M42.6438 29.6146C42.7339 29.0578 42.9058 28.3209 43.1515 27.4038C43.3971 26.4867 43.6755 25.5042 43.9703 24.4725C44.265 23.4408 44.6499 22.4009 45.0102 21.3528C45.3704 20.3047 45.7389 19.3713 46.0828 18.5443C46.2801 18.0626 46.5043 17.5924 46.7542 17.1359C46.9273 16.8341 47.1424 16.5584 47.3929 16.3171C47.6714 16.361 47.9454 16.4295 48.2117 16.5218C48.493 16.6156 48.7667 16.7305 49.0305 16.8657C49.2804 16.9924 49.5236 17.1318 49.7593 17.2833C49.9412 17.4028 50.1064 17.546 50.2506 17.7091C49.7065 18.3537 49.2445 19.0633 48.875 19.8216C48.4262 20.7862 48.0486 21.7824 47.745 22.8021C48.7822 21.8741 49.7047 20.9843 50.5126 20.1328C51.3398 19.2511 52.0903 18.3005 52.7561 17.2915C52.9386 17.1829 53.1505 17.1342 53.3621 17.1523C53.6407 17.1458 53.9182 17.1902 54.1809 17.2833C54.3926 17.3377 54.5783 17.4653 54.7049 17.6436C54.3633 18.5208 54.1857 19.4534 54.1809 20.3948C54.1385 21.0553 54.2683 21.7155 54.5575 22.3108C54.4694 22.5546 54.336 22.7796 54.1645 22.974C53.9166 23.3037 53.6428 23.6131 53.3457 23.8993C52.8123 23.6278 52.3367 23.2551 51.9455 22.8021C51.5507 22.3474 51.2451 21.8224 51.0448 21.2545C50.2281 21.8198 49.4537 22.4437 48.7276 23.1214C48.0931 23.7218 47.5423 24.4048 47.09 25.1521C46.6075 25.9601 46.2175 26.8198 45.9272 27.715C45.6161 28.6812 45.3049 29.8357 45.0184 31.1704C44.8041 31.1327 44.5952 31.0695 44.3961 30.982C44.1432 30.8703 43.8996 30.7389 43.6673 30.589C43.4391 30.4425 43.2228 30.2783 43.0205 30.0977C42.8596 29.9676 42.7307 29.8024 42.6438 29.6146Z" fill="#FED136"/>
<path d="M56.7273 19.0928C56.5896 18.8681 56.5003 18.6171 56.4653 18.3559C56.3968 18.0354 56.3584 17.7092 56.3507 17.3815C56.8297 17.461 57.3144 17.5021 57.8 17.5044H59.0773C59.3639 16.9312 59.6832 16.358 60.019 15.793C60.3547 15.228 60.6822 14.7122 61.0015 14.2455C61.2809 13.8343 61.5816 13.438 61.9022 13.0582C62.0906 12.819 62.311 12.6068 62.5573 12.4277C62.8056 12.4353 63.0525 12.4682 63.2942 12.526C63.5972 12.5997 63.9001 12.6815 64.2113 12.788C64.5224 12.8944 64.8008 13.0091 65.0301 13.1237C65.2268 13.2005 65.4053 13.3177 65.5541 13.4676C64.9728 14.2045 64.4733 14.876 64.0639 15.4983C63.6545 16.1206 63.1959 16.8411 62.7128 17.6435H63.8674C64.27 17.6448 64.6723 17.6175 65.071 17.5617C65.1766 17.6621 65.2578 17.7854 65.3085 17.9219C65.364 18.0656 65.3917 18.2184 65.3904 18.3723C64.285 18.7662 63.1162 18.9522 61.9432 18.9209C61.4601 19.8543 61.0261 20.7796 60.6494 21.6967C60.2728 22.6137 59.9862 23.5063 59.7733 24.3578C59.5266 25.149 59.3216 25.9525 59.1592 26.7651C59.0275 27.437 58.9562 28.1194 58.9463 28.804C58.9463 29.6556 59.2656 30.1305 59.9043 30.2287C60.466 30.1523 61.0161 30.0065 61.5419 29.7947C62.0458 29.596 62.5154 29.3197 62.9339 28.9759C63.0316 29.1078 63.1013 29.2583 63.1386 29.4181C62.9698 29.6456 62.7684 29.847 62.5409 30.0158C62.2509 30.2592 61.9475 30.4861 61.632 30.6954C61.3252 30.9043 61.0052 31.093 60.674 31.2604C60.4557 31.3786 60.2212 31.4641 59.978 31.5143C59.4812 31.5102 58.9896 31.413 58.5287 31.2277C58.0598 31.0425 57.6167 30.7975 57.2104 30.4989C56.8351 30.2317 56.5083 29.9021 56.2442 29.5245C56.0065 29.2225 55.8717 28.8524 55.8594 28.4683C55.8736 27.88 55.9366 27.2939 56.0477 26.716C56.1787 26.0036 56.3589 25.2421 56.5881 24.407C56.8174 23.5718 57.0876 22.7038 57.4069 21.7949C57.7263 20.8861 58.0538 19.9854 58.4223 19.0928H56.7273Z" fill="#FED136"/>
<path d="M92.2066 14.2209C92.2236 15.3674 91.8798 16.4902 91.224 17.4306C90.5189 18.4067 89.5967 19.2056 88.5301 19.7643C89.2397 20.2421 89.8374 20.8678 90.2823 21.5984C90.7171 22.3227 90.9438 23.1528 90.9374 23.9975C90.9181 25.0943 90.5919 26.1637 89.9958 27.0845C89.332 28.1304 88.4796 29.0439 87.482 29.7784C86.3951 30.5841 85.1948 31.2243 83.9202 31.678C82.6083 32.1564 81.2225 32.4003 79.8261 32.3986C78.4594 32.4374 77.1024 32.1571 75.863 31.5798C74.7631 31.0331 73.8446 30.18 73.2183 29.1233C73.4039 28.5447 73.6577 27.8241 73.9798 26.9616C74.2991 26.1428 74.6512 25.193 75.0442 24.2432C75.4373 23.2934 75.863 22.3353 76.2151 21.3855C76.5672 20.4357 76.9848 19.5841 77.3287 18.8308C78.0656 17.1932 78.7207 15.8258 79.302 14.7368C79.7825 13.8372 80.33 12.975 80.9397 12.1575C79.9483 12.4595 78.9797 12.8317 78.0411 13.2711C77.3462 13.575 76.7004 13.9806 76.1251 14.4747C75.9218 14.3316 75.7422 14.1575 75.5928 13.9589C75.4004 13.7148 75.2253 13.4576 75.0688 13.1892C74.9061 12.9159 74.769 12.6281 74.6594 12.3294C74.5646 12.079 74.5013 11.8177 74.471 11.5516C75.084 11.1465 75.7404 10.8114 76.428 10.5526C77.2837 10.2179 78.162 9.9443 79.0564 9.7338C80.0147 9.4964 80.985 9.31053 81.9632 9.177C82.9105 9.0494 83.865 8.98376 84.8209 8.98049C86.7387 8.87022 88.6437 9.35648 90.2742 10.3725C90.8953 10.7983 91.3984 11.3746 91.7363 12.0476C92.0743 12.7207 92.236 13.4684 92.2066 14.2209ZM81.1689 21.1644C80.779 20.9623 80.4337 20.6839 80.1536 20.3456C79.7033 21.3282 79.2857 22.2944 78.8926 23.2442C78.4996 24.1941 78.1393 25.0702 77.8282 25.8808C77.517 26.6914 77.2714 27.4038 77.0749 28.0015C76.9246 28.4404 76.8177 28.8929 76.7555 29.3526C77.0593 29.5198 77.3885 29.6359 77.7299 29.6965C78.1938 29.7866 78.6658 29.8277 79.1383 29.8193C80.4146 29.8234 81.6843 29.6357 82.9048 29.2625C84.0336 28.9171 85.1004 28.3947 86.0655 27.715C86.9191 27.1384 87.6555 26.4048 88.2353 25.5533C88.7585 24.8063 89.0439 23.9187 89.0541 23.0068C89.0865 22.4361 88.948 21.8688 88.6563 21.3773C88.3645 20.8857 87.9329 20.4923 87.4165 20.2474C85.7941 20.8911 84.0605 21.2083 82.3153 21.1808H81.693C81.5182 21.1902 81.3428 21.1847 81.1689 21.1644ZM86.7942 11.093C86.3647 11.0945 85.9355 11.1191 85.5087 11.1667C85.0501 11.2159 84.5752 11.2895 84.0757 11.3878C84.1499 11.4603 84.2133 11.543 84.2641 11.6334C84.2641 11.7153 84.3541 11.8054 84.3951 11.9037C84.1594 12.2272 83.946 12.5664 83.7564 12.919C83.5026 13.3693 83.2242 13.8852 82.9376 14.4747C82.651 15.0643 82.3071 15.7111 81.9632 16.4317C81.6193 17.1523 81.2836 17.881 80.9397 18.6343C81.3361 18.5442 81.7383 18.4812 82.1433 18.446C82.6085 18.3972 83.0758 18.3726 83.5435 18.3723C83.7973 18.3723 84.043 18.3723 84.2886 18.3723C84.5343 18.3723 84.7635 18.4214 84.9928 18.4624C85.8524 18.3252 86.695 18.0974 87.5066 17.7827C88.1887 17.514 88.835 17.162 89.4308 16.7347C89.9176 16.3859 90.3296 15.9432 90.6426 15.4327C90.9285 14.9734 91.079 14.4426 91.0766 13.9016C91.0969 13.485 91.006 13.0705 90.8131 12.7007C90.6203 12.3309 90.3326 12.0191 89.9794 11.7972C89.0047 11.2684 87.901 11.0244 86.7942 11.093Z" fill="#FED136"/>
<path d="M96.2352 31.2113C95.7186 31.1683 95.2169 31.017 94.7626 30.7673C94.3083 30.5176 93.9117 30.1751 93.5986 29.762C92.9088 28.8134 92.5623 27.6584 92.616 26.4867C92.6213 25.6725 92.737 24.8626 92.9599 24.0794C93.1976 23.2263 93.5299 22.4023 93.9507 21.623C94.3774 20.8348 94.8822 20.0914 95.4573 19.404C96.0103 18.7324 96.6427 18.1303 97.3406 17.6108C98.1821 16.9021 99.2308 16.4855 100.329 16.4235C101.11 16.9339 101.74 17.6434 102.155 18.4787H102.417H102.671C103.703 18.4787 104.21 19.3876 104.21 21.2054C104.219 22.3863 104.016 23.5592 103.613 24.669C103.234 25.7433 102.681 26.7476 101.975 27.6413C101.27 28.5309 100.417 29.2926 99.4531 29.893C98.4639 30.5135 97.3754 30.9594 96.2352 31.2113ZM97.7172 22.0815C97.376 22.5429 97.0669 23.0271 96.792 23.5308C96.5062 24.0404 96.2545 24.5683 96.0387 25.1111C95.8365 25.6084 95.6723 26.1203 95.5474 26.6423C95.4341 27.0756 95.3736 27.521 95.3672 27.9688C95.3669 28.4216 95.4473 28.8708 95.6047 29.2953C95.7521 29.7211 95.9322 29.9667 96.1205 30.024C96.9853 29.8334 97.8001 29.4623 98.5115 28.935C99.252 28.389 99.892 27.7185 100.403 26.9535C100.947 26.1183 101.367 25.2079 101.648 24.2514C101.952 23.206 102.103 22.1222 102.098 21.0334C102.105 20.6358 102.075 20.2383 102.008 19.8462C101.958 19.5801 101.86 19.3251 101.721 19.0929C100.884 19.3481 100.109 19.7747 99.4449 20.3456C98.8079 20.8601 98.2286 21.4421 97.7172 22.0815Z" fill="#FED136"/>
<path d="M109.025 31.2113C108.508 31.1703 108.006 31.02 107.551 30.7701C107.096 30.5202 106.7 30.1766 106.389 29.762C105.692 28.8163 105.342 27.6598 105.398 26.4867C105.402 25.6718 105.52 24.8614 105.75 24.0794C105.981 23.2253 106.311 22.4009 106.732 21.623C107.159 20.8348 107.664 20.0914 108.239 19.404C108.794 18.7343 109.426 18.1324 110.122 17.6108C110.964 16.9032 112.013 16.4867 113.111 16.4235C113.894 16.9317 114.524 17.6418 114.937 18.4787H115.199H115.461C116.485 18.4787 116.992 19.3876 116.992 21.2054C116.999 22.3855 116.8 23.5577 116.403 24.669C116.021 25.7417 115.468 26.7455 114.765 27.6413C114.06 28.5309 113.207 29.2926 112.243 29.893C111.254 30.5144 110.166 30.9604 109.025 31.2113ZM110.54 22.0815C110.199 22.5429 109.89 23.0271 109.615 23.5308C109.332 24.0421 109.081 24.5698 108.861 25.1111C108.659 25.6084 108.495 26.1203 108.37 26.6423C108.261 27.0764 108.2 27.5213 108.19 27.9688C108.19 28.4216 108.27 28.8708 108.427 29.2953C108.583 29.7211 108.755 29.9667 108.951 30.024C109.815 29.8302 110.629 29.4594 111.342 28.935C112.078 28.3866 112.715 27.7164 113.226 26.9535C113.773 26.1201 114.193 25.2092 114.47 24.2514C114.778 23.2068 114.93 22.1224 114.921 21.0334C114.927 20.6358 114.897 20.2383 114.831 19.8462C114.78 19.5801 114.683 19.3251 114.544 19.0929C113.692 19.3429 112.902 19.7697 112.227 20.3456C111.606 20.8644 111.041 21.4461 110.54 22.0815Z" fill="#FED136"/>
<path d="M119.809 19.0928C119.668 18.8698 119.578 18.618 119.547 18.3559C119.474 18.0361 119.436 17.7095 119.432 17.3815C119.911 17.4617 120.396 17.5028 120.881 17.5044H122.151C122.445 16.9312 122.757 16.358 123.092 15.793C123.428 15.228 123.764 14.7122 124.083 14.2455C124.36 13.8324 124.661 13.436 124.984 13.0582C125.17 12.8196 125.387 12.6075 125.631 12.4277C125.882 12.4347 126.131 12.4677 126.376 12.526C126.67 12.5997 126.973 12.6815 127.285 12.788C127.596 12.8944 127.874 13.0091 128.103 13.1237C128.298 13.2002 128.474 13.3175 128.619 13.4676C128.046 14.2045 127.547 14.876 127.129 15.4983C126.711 16.1206 126.261 16.8411 125.786 17.6435H126.957C127.36 17.6443 127.762 17.6169 128.161 17.5617C128.264 17.6626 128.342 17.7859 128.39 17.9219C128.448 18.0651 128.479 18.2178 128.48 18.3723C127.372 18.7663 126.2 18.9522 125.025 18.9209C124.542 19.8543 124.116 20.7796 123.739 21.6967C123.362 22.6137 123.043 23.5063 122.781 24.3578C122.533 25.148 122.331 25.9517 122.175 26.7651C122.037 27.4362 121.963 28.1189 121.954 28.804C121.954 29.6556 122.273 30.1305 122.912 30.2287C123.474 30.1516 124.024 30.0059 124.55 29.7947C125.053 29.5941 125.522 29.318 125.942 28.9759C126.036 29.1098 126.105 29.2596 126.146 29.4181C125.973 29.6416 125.772 29.8424 125.549 30.0158C125.257 30.2612 124.951 30.4881 124.632 30.6954C124.327 30.9024 124.009 31.0911 123.682 31.2604C123.463 31.3786 123.229 31.4641 122.986 31.5143C122.489 31.5102 121.997 31.413 121.537 31.2277C121.068 31.0425 120.625 30.7975 120.218 30.4989C119.841 30.2315 119.511 29.9021 119.244 29.5245C119.009 29.2218 118.877 28.8516 118.867 28.4683C118.881 27.88 118.944 27.2939 119.056 26.716C119.178 26.0036 119.358 25.2421 119.588 24.407C119.817 23.5718 120.095 22.7038 120.407 21.7949C120.718 20.8861 121.053 19.9854 121.414 19.0928H119.809Z" fill="#FED136"/>
<path d="M138.298 18.6179C138.276 19.0057 138.213 19.3901 138.109 19.7643C138.011 20.1319 137.882 20.4907 137.724 20.8369C137.593 21.1299 137.425 21.4051 137.225 21.6557C137.172 21.7419 137.1 21.8151 137.015 21.8703C136.93 21.9256 136.834 21.9613 136.734 21.9751C136.521 21.9751 136.398 21.8113 136.357 21.5411C136.367 21.445 136.392 21.3511 136.431 21.2627C136.48 21.1399 136.529 21.0007 136.586 20.8451C136.644 20.6895 136.701 20.534 136.75 20.3784C136.795 20.2492 136.82 20.1139 136.824 19.9772C136.83 19.7344 136.764 19.4952 136.635 19.2894C136.58 19.2053 136.505 19.1364 136.416 19.0892C136.327 19.042 136.228 19.0179 136.128 19.0192C135.35 19.0192 134.76 19.5023 134.359 20.4603C133.889 21.8226 133.683 23.2622 133.753 24.7017C133.738 24.8159 133.738 24.9315 133.753 25.0456H135.784C135.797 25.1215 135.797 25.199 135.784 25.2749C135.792 25.3422 135.786 25.4105 135.767 25.4754C135.747 25.5403 135.714 25.6003 135.669 25.6516L134.613 25.8972C134.409 25.9457 134.21 26.0087 134.015 26.0855C133.915 26.1197 133.829 26.1858 133.77 26.2739C133.741 26.361 133.727 26.4523 133.729 26.5441C133.729 26.6996 133.729 26.8552 133.729 27.0108C133.729 27.1664 133.729 27.3547 133.729 27.584C133.796 29.0029 133.325 30.395 132.41 31.4815C131.455 32.5049 130.14 33.1183 128.742 33.1928C128.458 33.1656 128.18 33.088 127.923 32.9636C127.631 32.8208 127.356 32.645 127.104 32.4395C126.847 32.2333 126.619 31.9937 126.425 31.7272C126.24 31.4813 126.101 31.2038 126.015 30.9083C126.014 30.1758 126.173 29.4518 126.482 28.7876C126.789 28.1222 127.216 27.5197 127.743 27.0108C128.291 26.4824 128.929 26.0554 129.626 25.7498C130.373 25.4251 131.179 25.2606 131.993 25.2667C131.993 24.788 131.944 24.3105 131.845 23.842C131.747 23.3753 131.649 22.9249 131.542 22.4909C131.436 22.057 131.329 21.623 131.239 21.2054C131.143 20.8004 131.093 20.3854 131.092 19.969C131.094 19.4344 131.203 18.9056 131.411 18.4132C131.614 17.9015 131.89 17.4216 132.23 16.9885C132.573 16.5531 132.982 16.1745 133.442 15.8667C133.882 15.5672 134.373 15.3508 134.891 15.2281C135.193 15.3457 135.471 15.5178 135.71 15.7357C136.08 16.0288 136.433 16.3432 136.766 16.6774C137.099 17.0072 137.409 17.3601 137.692 17.7336C137.952 17.9841 138.158 18.285 138.298 18.6179ZM128.734 31.809C129.215 31.61 129.66 31.3334 130.052 30.9902C130.882 30.251 131.511 29.3127 131.878 28.2636C132.059 27.7704 132.154 27.2496 132.156 26.7242C131.697 26.8111 131.261 26.9954 130.879 27.2646C129.944 27.8778 129.15 28.6848 128.554 29.631C128.316 29.9751 128.174 30.3765 128.144 30.7937C128.15 30.9987 128.207 31.199 128.31 31.3764C128.413 31.5537 128.559 31.7025 128.734 31.809Z" fill="#FED136"/>
<path d="M140.017 19.0928C139.876 18.8698 139.786 18.618 139.755 18.3559C139.682 18.0361 139.644 17.7095 139.64 17.3815C140.119 17.4617 140.604 17.5028 141.09 17.5044H142.367C142.654 16.9312 142.965 16.358 143.309 15.793C143.653 15.228 143.972 14.7122 144.291 14.2455C144.568 13.8324 144.869 13.436 145.192 13.0582C145.378 12.8196 145.596 12.6075 145.839 12.4277C146.09 12.4347 146.34 12.4677 146.584 12.526C146.879 12.5997 147.182 12.6815 147.493 12.788C147.804 12.8944 148.082 13.0091 148.312 13.1237C148.506 13.2002 148.682 13.3175 148.828 13.4676C148.254 14.2045 147.755 14.876 147.337 15.4983C146.92 16.1206 146.478 16.8411 145.994 17.6435H147.165C147.568 17.6443 147.97 17.6169 148.369 17.5617C148.472 17.6626 148.55 17.7859 148.598 17.9219C148.656 18.0651 148.687 18.2178 148.688 18.3723C147.583 18.7654 146.414 18.9514 145.241 18.9209C144.75 19.8543 144.324 20.7796 143.947 21.6967C143.571 22.6137 143.251 23.5063 142.989 24.3578C142.741 25.148 142.539 25.9517 142.383 26.7651C142.245 27.4362 142.171 28.1189 142.162 28.804C142.162 29.6556 142.482 30.1305 143.12 30.2287C143.682 30.1516 144.232 30.0059 144.758 29.7947C145.261 29.5941 145.73 29.318 146.15 28.9759C146.244 29.1098 146.314 29.2596 146.355 29.4181C146.181 29.6416 145.98 29.8424 145.757 30.0158C145.466 30.2612 145.159 30.4881 144.84 30.6954C144.535 30.9024 144.218 31.0911 143.89 31.2604C143.672 31.3786 143.437 31.4641 143.194 31.5143C142.697 31.5102 142.206 31.413 141.745 31.2277C141.276 31.0425 140.833 30.7975 140.426 30.4989C140.049 30.2315 139.719 29.9021 139.452 29.5245C139.217 29.2218 139.085 28.8516 139.075 28.4683C139.09 27.88 139.153 27.2939 139.264 26.716C139.387 26.0036 139.567 25.2421 139.796 24.407C140.025 23.5718 140.304 22.7038 140.615 21.7949C140.926 20.8861 141.262 19.9854 141.622 19.0928H140.017Z" fill="#FED136"/>
<path d="M147.837 29.6146C147.935 29.0578 148.099 28.3209 148.345 27.4038C148.59 26.4867 148.869 25.5042 149.163 24.4725C149.458 23.4408 149.843 22.4009 150.211 21.3528C150.58 20.3047 150.932 19.3713 151.284 18.5443C151.479 18.063 151.701 17.5928 151.947 17.1359C152.126 16.8376 152.34 16.5625 152.586 16.3171C152.864 16.3623 153.138 16.4308 153.405 16.5218C153.686 16.6166 153.959 16.7315 154.224 16.8657C154.474 16.9906 154.718 17.13 154.952 17.2833C155.134 17.4028 155.3 17.546 155.444 17.7091C154.9 18.3537 154.438 19.0633 154.068 19.8216C153.626 20.7891 153.249 21.7847 152.938 22.8021C153.986 21.8768 154.903 20.9843 155.706 20.1328C156.535 19.2512 157.289 18.3007 157.957 17.2915C158.139 17.1818 158.352 17.133 158.563 17.1523C158.828 17.1498 159.092 17.1942 159.341 17.2833C159.553 17.3377 159.739 17.4653 159.865 17.6436C159.528 18.5219 159.35 19.4537 159.341 20.3948C159.301 21.056 159.434 21.7164 159.726 22.3108C159.631 22.5512 159.498 22.775 159.333 22.974C159.085 23.3035 158.811 23.6129 158.514 23.8993C157.445 23.331 156.63 22.3809 156.23 21.2381C155.421 21.8152 154.654 22.4501 153.937 23.1378C153.307 23.7425 152.757 24.4249 152.299 25.1685C151.815 25.9709 151.422 26.8251 151.129 27.715C150.809 28.6812 150.506 29.8357 150.211 31.1704C149.998 31.1316 149.789 31.0684 149.589 30.982C149.089 30.7603 148.623 30.468 148.205 30.1141C148.045 29.9785 147.919 29.8074 147.837 29.6146Z" fill="#FED136"/>
<path d="M170.215 18.4869C170.445 18.4919 170.673 18.5249 170.895 18.5852C171.14 18.6499 171.378 18.7376 171.607 18.8472C171.796 18.9391 171.975 19.0517 172.139 19.1829C172.287 19.2975 172.36 19.404 172.36 19.5022C171.975 20.3211 171.615 21.1399 171.288 21.9587C170.96 22.7775 170.682 23.5963 170.469 24.3251C170.253 25.019 170.075 25.7243 169.937 26.4376C169.818 27.0005 169.755 27.5737 169.748 28.1489C169.736 28.6027 169.794 29.0556 169.92 29.4918C170.008 29.8137 170.216 30.0894 170.502 30.2615C170.224 30.4357 169.92 30.5629 169.601 30.6381C169.281 30.7293 168.951 30.7789 168.618 30.7855C167.57 30.7855 167.054 30.0731 167.054 28.6402C167.159 27.082 167.53 25.5533 168.152 24.1204C167.774 24.9738 167.327 25.7953 166.817 26.5768C166.356 27.2997 165.844 27.9892 165.286 28.6402C164.815 29.2136 164.276 29.7278 163.681 30.1714C163.245 30.4972 162.746 30.7286 162.215 30.851C161.865 30.852 161.521 30.762 161.217 30.5897C160.913 30.4174 160.658 30.1688 160.479 29.8684C160.01 29.1373 159.776 28.2801 159.808 27.412C159.825 26.2351 160.061 25.0718 160.504 23.9812C160.959 22.7957 161.558 21.6709 162.289 20.6322C162.952 19.6699 163.745 18.8045 164.647 18.0611C165.32 17.4393 166.189 17.0716 167.103 17.0212C167.339 17.1033 167.56 17.2222 167.759 17.3733C168.008 17.5545 168.241 17.7573 168.455 17.9793C168.664 18.1959 168.854 18.4316 169.019 18.6834C169.149 18.8704 169.238 19.0823 169.282 19.3057C168.412 19.4436 167.591 19.8016 166.899 20.3456C166.052 21.0064 165.299 21.7806 164.663 22.6465C164.002 23.5338 163.452 24.499 163.026 25.5205C162.626 26.4245 162.409 27.3984 162.387 28.3864C162.368 28.5314 162.398 28.6788 162.472 28.805C162.546 28.9311 162.66 29.0288 162.797 29.0824C163.574 28.8083 164.25 28.306 164.737 27.6413C165.737 26.4214 166.631 25.1174 167.406 23.7437L168.053 22.5892C168.299 22.1634 168.545 21.713 168.798 21.2545L169.535 19.8461C169.773 19.3876 170.002 18.9291 170.215 18.4869Z" fill="#FED136"/>
<path d="M171.722 39.7925C171.451 39.7188 171.296 39.424 171.255 38.9245C171.175 38.6298 171.123 38.3283 171.099 38.0238C171.099 37.6799 171.058 37.2787 171.058 36.8365C171.077 36.2861 171.143 35.7382 171.255 35.1989C171.394 34.4947 171.582 33.7005 171.828 32.808C172.074 31.9155 172.36 30.9575 172.712 29.9258C173.064 28.894 173.441 27.846 173.867 26.7815C174.391 25.4468 174.841 24.3251 175.234 23.3179C175.627 22.3108 175.938 21.492 176.201 20.7796C176.463 20.0672 176.675 19.4777 176.839 19.011C177.003 18.5442 177.134 18.1921 177.232 17.8237C177.33 17.5438 177.444 17.2703 177.576 17.0049C177.739 16.6627 177.919 16.3293 178.117 16.0059C178.313 15.6702 178.526 15.3509 178.739 15.0479C178.907 14.8005 179.102 14.5725 179.32 14.3683C179.976 14.4605 180.617 14.6366 181.228 14.8923C181.655 15.0272 182.038 15.2764 182.333 15.6129C181.98 15.9688 181.67 16.3645 181.408 16.792C181.039 17.3523 180.7 17.9317 180.393 18.5279C180.06 19.1561 179.759 19.8011 179.492 20.4603C179.252 21.025 179.05 21.6049 178.886 22.1961C179.109 21.8196 179.361 21.461 179.64 21.1235C179.942 20.7387 180.458 20.2064 181.056 19.5268C181.661 18.8875 182.337 18.3189 183.07 17.8319C183.553 17.4913 184.119 17.2875 184.708 17.2423C185.366 17.2121 186.011 17.4281 186.518 17.8482C186.747 18.0375 186.931 18.2768 187.055 18.5478C187.178 18.8189 187.238 19.1145 187.23 19.4122C187.228 20.8195 186.993 22.2169 186.534 23.5472C186.085 24.8837 185.409 26.1329 184.536 27.24C184.2 27.6623 183.824 28.0516 183.414 28.4028C182.98 28.7823 182.514 29.1247 182.022 29.4263C181.576 29.7122 181.101 29.9509 180.606 30.1386C180.209 30.2975 179.788 30.3861 179.361 30.4007C179.041 30.4082 178.725 30.332 178.444 30.1796C178.21 30.0693 178.022 29.8812 177.912 29.6474C178.736 29.1425 179.478 28.5158 180.114 27.7886C180.867 26.9471 181.531 26.0307 182.096 25.0538C182.722 23.9849 183.257 22.8645 183.693 21.7049C184.14 20.5191 184.485 19.2974 184.724 18.0529C184.025 18.4127 183.359 18.8347 182.735 19.3139C182.07 19.8324 181.473 20.4321 180.958 21.0989C180.262 21.9177 179.713 22.6301 179.32 23.1542C178.927 23.6782 178.583 24.1204 178.321 24.4888C178.084 24.8143 177.871 25.1564 177.683 25.5123C177.519 25.8317 177.339 26.2247 177.15 26.6914C176.88 27.3055 176.561 28.1244 176.209 29.1479C175.857 30.1714 175.48 31.2932 175.103 32.5541C174.727 33.8151 174.35 35.1498 173.973 36.5663C173.597 37.9829 173.236 39.4076 172.884 40.816C172.763 40.7851 172.651 40.7271 172.556 40.6462C172.461 40.5653 172.386 40.4637 172.336 40.3493C172.18 40.1773 172.065 40.0545 172 39.9726C171.924 39.8899 171.828 39.828 171.722 39.7925Z" fill="#FED136"/>
</g>
</g>
</g>
<defs>
<clipPath id="clip0_101_100">
<rect width="187.23" height="32" fill="white" transform="translate(0 8.79999)"/>
</clipPath>
<clipPath id="clip1_101_100">
<rect width="187.23" height="32" fill="white" transform="translate(0 8.79999)"/>
</clipPath>
<clipPath id="clip2_101_100">
<rect width="187.23" height="31.9993" fill="white" transform="translate(0 8.80035)"/>
</clipPath>
</defs>
</svg>
